<?xml version="1.0" encoding="utf-8"?>
<!-- Generator: Adobe Illustrator 27.0.0, SVG Export Plug-In . SVG Version: 6.00 Build 0)  -->
<svg version="1.1" id="Layer_1" xmlns="http://www.w3.org/2000/svg" xmlns:xlink="http://www.w3.org/1999/xlink" x="0px" y="0px"
	 viewBox="0 0 594.26 156.86" style="enable-background:new 0 0 594.26 156.86;" xml:space="preserve">
<style type="text/css">
	.st0{fill:#A7509E;}
</style>
<g>
	<g>
		<path d="M80.96,116.92c2.14,1.16,5.22,1.16,6.28,4.96c0.06,1.29,0.09,2.46,0.09,3.53c0,10.07-3.64,18.11-10.93,24.13
			c-7.29,6.02-17.05,9.03-29.29,9.03c-24.57,0-39.31-11.06-44.22-33.17c-0.61-2.76-1.07-5.7-0.78-8.81
			c3.93-14.68,19.34-19.31,29.36-29.32c8.48-8.48-5.39-15.41-4.62-23.88c1.54-12.33,17.72-13.87,28.51-11.56
			c21.57,3.85,47,12.33,58.56,31.59c0.77,0.77-4.62,2.31-6.93,0.77c-10.02-7.7-20.03-14.64-30.82-20.03
			c-6.93-3.08-20.8-10.02-21.57-1.54c-1.54,8.48,16.95,14.64,9.25,23.11c-9.25,11.56-24.66,16.95-28.93,32.69
			c-0.26,2.85-0.47,5.64-0.93,8.37c0.9,5.23,2.26,9.58,4.07,13.07c3.62,6.97,9.04,10.45,16.28,10.45c5.97,0,10.94-2.38,14.91-7.13
			c3.97-4.75,5.96-10.7,5.96-17.83c0-1.03-0.07-2.27-0.2-3.74C74.77,118.53,78.13,116.15,80.96,116.92z"/>
		<path d="M79.79,103.06c5.62-7.33,21.03-10.41,19.49-18.88c-3.85-16.95-27.74-20.03-30.52-38.8c0.06-1.87,0.08-3.73,0.1-5.57
			c0.01-1.84,0.01-3.65,0.01-5.4c0-14.03,0-24.56,0-24.56c0-2.45,1.99-4.44,4.44-4.44h40.11c11.59,0,20.84,2.44,27.78,7.32
			c6.93,4.88,10.4,11.42,10.4,19.62c0,4.77-1.07,8.9-3.22,12.4c-1.07,1.75-2.41,3.34-3.96,4.78c-2.75,2.29-10.46,6.91-5.06,9.22
			c22.34,10.02,30.82,36.98,10.79,50.85c-4.62,3.08-16.18,1.54-18.49-3.08c-2.31-5.39,7.7-11.56,13.1-16.95
			c3.85-4.62,1.54-10.02-1.54-13.87c-10.02-8.48-21.57-17.72-35.44-16.18c4.62,9.25,19.26,11.56,18.49,21.57
			c-1.54,20.03-27.74,33.13-47.91,27.21C76.4,108.01,76.95,105.68,79.79,103.06z M98.92,46.2c-0.41,1.76,0.36,3.3,1.9,4.07
			c6.16,0.77,12.33,0.77,16.98-4.09c1.42-1.49,2.49-3.34,3.2-5.57s1.07-4.83,1.07-7.8c0-11.89-5.69-17.84-17.08-17.84h-1.63
			c-2.45,0-4.44,1.99-4.44,4.44c0,0,0,15.07,0,22.6C98.92,44.53,98.92,46.2,98.92,46.2z"/>
		<path d="M193.15,57.91c2.43,3.93-2.96,5.47-5.27,6.24c-6.16,0-12.33-0.77-18.49,0.77c-13.87,3.85-7.7,24.66-2.31,31.59
			c6.93,9.25,21.57-1.54,33.13-0.77c-3.85,3.85-8.48,6.93-13.1,9.25c-10.02,4.62-30.82-0.77-31.58,14.56
			c-0.23,2.08-0.62,4.42-0.95,6.84c-0.33,2.42-0.61,4.91-0.61,7.3c0,4.77,0,8.34,0,8.34c0,2.45,1.99,4.44,4.44,4.44h34.53
			c2.45,0,4.44,1.99,4.44,4.44v1.52c0,2.45-1.99,4.44-4.44,4.44h-64.58c-2.45,0-4.44-1.99-4.44-4.44c0,0,0-5.92,0-14.8
			c0-2.96,0-6.25,0-9.76c0.02-19.03,23.13-26.74,25.44-43.69c1.54-11.56-13.87-16.95-20.8-26.2c-0.77-1.54-1.54-3.85-0.77-3.85
			c20.03-1.54,39.29-0.77,59.59-0.78C189.68,53.33,192.15,55.37,193.15,57.91z"/>
		<path d="M235.42,8.66c0,0,2.93,10.52,6.84,24.56c0.78,2.81,1.6,5.75,2.45,8.78c5.59,19.06,27.93,23.69,38.72,37.56
			c9.25,12.33-12.33,20.8-20.8,28.51c-4.62,4.62-14.64,1.54-22.34-0.77c3.85-9.25,14.64-12.33,18.49-21.57
			c-24.66-7.7-46.23-0.77-63.18,20.03c-1.54,1.54-3.08,1.54-4.62,0c-0.77-1.54,0-3.08,0.77-4.62c5.39-6.16,13.87-10.79,13.87-18.49
			c-0.77-11.56-13.87-19.26-10.47-32.57c0.39-1.98,0.92-3.93,1.49-5.85c1.14-3.84,2.24-7.56,3.28-11.07
			c4.15-14.03,7.27-24.56,7.27-24.56c0.56-1.89,2.29-3.18,4.26-3.18h19.72C233.14,5.41,234.89,6.74,235.42,8.66z M225.91,74.31
			c6.66,0.62,12.82-0.15,19.76-0.15c-7.7-10.79-23.88-11.56-28.33-24.58c-0.82-2.3-1.23-3.86-1.23-3.86
			c-1.16-4.35-7.31-4.41-8.56-0.09c0,0-0.45,1.55-0.93,3.89c-0.24,8.45,2.07,20,11.07,23.1C220.13,73.53,223.15,74.18,225.91,74.31z
			"/>
		<path d="M334.76,58.99c1.05,2.07,3.36,4.39,2.59,5.16c-5.39,3.08-12.33,0-18.49,0.77c3.85,8.48,17.72,12.33,13.87,20.8
			c-6.16,13.87-29.28,17.72-27.34,35.62c0.05,2.44,0.25,4.85,0.33,7.26c0.16,4.82-0.12,9.68-1.2,14.62
			c-0.94,5.83-0.94,9.21-0.94,9.21c0,2.45-1.99,4.44-4.44,4.44h-22.99c-2.45,0-4.44-1.99-4.44-4.44c0,0,0-3.37,0-8.77
			c0.15-4,1.69-7.85,1.69-11.7c0.1-2.31,0.08-4.61,0-6.9c-0.09-2.29-0.25-4.57-0.32-6.83c1.1-14.77,16.51-22.48,26.53-30.95
			c2.31-2.31,3.08-6.16,1.54-9.25c-11.56-14.64-27.74-12.33-43.92-16.18c-3.08,0-8.48-5.39-6.16-6.16
			c26.2-6.16,51.62-2.31,76.87-1.61C330.35,54.05,333.24,56.25,334.76,58.99z"/>
		<path d="M355.01,9.85c0,0,0,13.32,0,29.97c0.01,1.85,0.02,3.75,0.04,5.67c-0.75,3.25,0.79,5.56,0.79,8.64
			c2.31,14.64,26.2,20.03,20.8,35.44c-2.31,6.16-9.25,10.79-14.64,16.18c-8.48,6.93-20.03,2.31-30.05,3.85
			c-0.77,0-1.54-2.31-0.77-3.08c5.39-10.02,26.97-14.64,19.26-26.2c-9.25-12.33-22.34-21.57-25.18-37.06
			c-0.31-3.1-0.31-6.05-0.31-8.86c0-14.03,0-24.56,0-24.56c0-2.45,1.99-4.44,4.44-4.44h21.17C353.02,5.41,355.01,7.4,355.01,9.85z"
			/>
		<path d="M400.73,51.56c22.92-2.06,39.87,14.9,57.6,28.76c3.08,2.31,6.93,6.16,3.85,11.56c-6.93,10.02-16.18,16.95-17.91,28.68
			c-0.63,2.78-1.24,5.54-2.02,8.22c-5.49,18.78-19.87,33.82-42.61,29.86c-6.14,0-11.67-0.73-16.58-2.19
			c-12.28-3.65-20.73-11.87-25.34-24.66c-0.92-2.56-1.69-5.3-2.13-8.24c-2.04-16.26,14.14-24.74,22.61-36.29
			c1.54-2.31,1.54-5.39,0.77-7.7c-2.31-5.39-6.93-11.56-4.62-17.72c2.31-6.93,10.79-9.25,17.72-9.8
			C394.77,51.71,397.65,51.55,400.73,51.56z M404.28,60.07c-1.43,0.22-3.75,0.22-4.52,0.99c-0.77,1.54-0.77,3.08,0.77,4.62
			c6.93,6.93,19.26,9.25,21.57,20.03c0.77,3.85-3.08,6.93-6.16,9.25c-10.02,8.48-28.51,11.56-30.33,25.89
			c-0.02,2.32,0.11,4.47,0.28,6.47c0.5,5.99,1.25,10.55,2.25,13.67c1,3.12,2.46,5.47,4.37,7.03c7.26,5.49,19.58,3.95,20.35-4.52
			c0.29-2.31,0.46-4.61,0.54-6.9c0.08-2.29,0.08-4.57,0.02-6.84c-0.56-20.16,26.41-25.55,31.03-40.96
			c3.85-15.41-23.11-20.03-35.59-28.17C407.27,60.25,405.75,60.06,404.28,60.07z"/>
		<path d="M522.05,9.85c0,0,0,13.32,0,29.97c0,1.85,0,3.74,0,5.66c-2.09,17.13,17.17,25.6,19.49,39.47
			c3.08,16.18-20.03,30.82-33.13,22.34c-5.39-3.08,9.25-12.33,4.62-18.49c-12.33-16.95-35.44-29.28-54.7-33.13
			c3.85,13.1,23.11,16.18,22.34,30.05c0,12.33-20.03,28.51-27.74,19.26c-3.85-4.62,13.87-10.02,11.56-19.26
			c-3.08-12.33-16.95-19.26-18.09-33.21c-0.64-3.17-0.69-6.29-0.69-9.32c0-18.18,0-33.34,0-33.34c0-2.45,1.99-4.44,4.44-4.44h12.23
			c1.48,0,2.87,0.74,3.69,1.98c0,0,13.59,20.39,24.46,36.7c1.81,2.72,3.55,5.32,5.39,7.71c4.77,6.19,11.71,14.67,17.87,12.36
			c3.08-0.77-1.54-6.16-1.29-10.71c-0.51-2.39-0.55-5.21-0.55-8.24c0-15.15,0-35.34,0-35.34c0-2.45,1.99-4.44,4.44-4.44h1.21
			C520.06,5.41,522.05,7.4,522.05,9.85z"/>
	</g>
	<path class="st0" d="M522.83,119.55c0.63,2.58,1.19,5.14,1.79,7.64c0.59,2.5,1.37,4.94,2.34,7.28
		c3.87,9.38,10.72,17.25,19.97,21.36c12.33,5.39,27.74,1.54,36.8-8.76c3.49-4,6.12-7.88,7.95-12.18c0.91-2.15,1.62-4.41,2.1-6.75
		c0.48-2.34,0.7-4.77,0.29-7.28c-11.69-26.65-51.75-42.83-76.41-29.74c-7.7,3.85,0.77,14.64,2.66,22.05
		C521.19,115.28,522.03,117.4,522.83,119.55z"/>
</g>
</svg>
